<?xml version="1.0" encoding="utf-8"?>
<!-- Generator: Adobe Illustrator 25.0.0, SVG Export Plug-In . SVG Version: 6.00 Build 0)  -->
<svg version="1.1" id="Camada_1" xmlns="http://www.w3.org/2000/svg" xmlns:xlink="http://www.w3.org/1999/xlink" x="0px" y="0px"
	 viewBox="0 0 190 75" style="enable-background:new 0 0 190 75;" xml:space="preserve">
<style type="text/css">
	.st0{fill:#E09824;}
	.st1{fill:#FFFFFF;}
</style>
<g id="Layer_2" transform="translate(0.005 -0.01)">
	<g id="Layer_1" transform="translate(-0.005 0.01)">
		<path id="Caminho_161" class="st0" d="M49,40.6c-0.8-0.7-1.6-1.3-2.5-1.9s-1.1-0.8-1.7-1.2c-1.3,0.6-2.6,1.3-4,1.8
			c-3.6,1.5-7.3,2.7-11.1,3.5c-8.6,1.8-16.2,1.3-20.4-0.9l0,0c-0.2-0.1-0.5-0.1-0.6,0.1c-0.1,0.2-0.1,0.4,0.1,0.6l0,0
			c4.1,3.8,11.7,5.1,20.3,3.8c2.4-0.4,4.8-0.9,7.1-1.6c2.7,1.7,5.2,3.6,7.6,5.7c1.2,1,2.3,2,3.3,3.1c2,2.1,3.9,4.3,5.6,6.7
			c2.9,3.7,4.7,8.2,5.3,12.8l0,0c0,0.2,0.3,0.4,0.5,0.3c0.2,0,0.3-0.2,0.3-0.3l0,0c1.2-4.9-0.9-11.4-5.5-17.6
			c-1.7-2.3-3.5-4.4-5.6-6.3c-1.1-1.1-2.3-2.2-3.6-3.2l-3.6-2.8l1.6-0.7l2.1-0.9c1.4,1.1,2.7,2.2,4,3.4c1.7,1.7,3.8,3.7,5.7,5.9
			c4.5,5.2,8.6,11.4,8.6,16.3l0,0c0,0.2,0.2,0.3,0.4,0.2c0.1,0,0.2-0.1,0.2-0.2l0,0c1.4-5.9-1.9-13.9-8.5-21.2
			C53,44.1,51.1,42.3,49,40.6"/>
		<path id="Caminho_162" class="st0" d="M30.3,39c3.1-0.7,6.2-1.7,9.2-3c0.6-0.3,1.3-0.5,1.9-0.9c0.1-1.4,0.2-2.9,0.4-4.3
			c1.6-12.7,7-23.1,12.4-27.3C55,2.9,56,2.3,57,1.9l0,0c0.1,0,0.2-0.1,0.2-0.2c0-0.1-0.1-0.2-0.2-0.2h-0.2c-0.8,0.1-1.7,0.3-2.5,0.6
			c-6.6,2.4-12.5,11.1-15.1,22.4c-2.4,1.1-4.8,2.1-7.3,2.9l-1.5,0.5c-10.9,3.6-21.2,3.5-26.5,0.9l0,0c-0.2-0.1-0.5,0-0.6,0.2
			c-0.1,0.2,0,0.4,0.1,0.5l0,0c5.4,4.7,16.3,5.4,27.9,1.8l2.8-1l4.2-1.5c0,0.5-0.2,1-0.2,1.6c0,0.5-0.2,1.6-0.2,2.3
			c-2.3,0.9-4.6,1.6-7,2.3c-7.6,1.9-18.1,3.6-23.8,0.8l0,0c-0.2-0.1-0.4,0-0.5,0.2c-0.1,0.2,0,0.4,0.1,0.5l0,0
			C11.4,40.4,20.4,41.3,30.3,39"/>
		<path id="Caminho_163" class="st0" d="M71.5,3.3h-0.1c-4.4,0.4-8.7,3.8-12.1,9c-3.3,5.3-5.4,11.2-6.4,17.3l-0.6,4.5
			c-0.5-0.4-0.9-0.8-1.5-1.1l-0.7-0.5L49,31.6c0.6-3.8,1.6-7.6,2.8-11.2c1.9-5.8,4.9-12.1,8.6-15.5c1-0.9,2.2-1.6,3.4-2.1l0,0
			c0.1,0,0.2-0.1,0.2-0.2c0-0.1-0.1-0.2-0.2-0.2c0,0,0,0,0,0l0,0c-1.1,0.2-2.1,0.5-3.1,0.9c-2.9,1.5-5.4,3.7-7.3,6.3
			c-4.4,6.4-7.1,13.8-7.9,21.5c-0.1,0.7-0.2,1.4-0.2,2c1.2,0.8,2.4,1.6,3.6,2.5l0.9,0.7c2,1.6,3.9,3.2,5.7,5
			c7.1,7.1,11.2,14.8,11.4,20l0,0c0,0.2,0.2,0.4,0.4,0.4c0.2,0,0.3-0.1,0.4-0.3c0-0.1,0-0.2,0-0.4c0.1-0.5,0.2-1.1,0.2-1.6
			c0.2-6.6-4-15.1-11.9-22.5l0,0c0.1-3.2,0.4-6.4,1.1-9.5c0.2-0.8,0.3-1.5,0.5-2.3c3-11.6,9-20.1,14.1-21.8l0,0
			c0.1,0,0.1-0.1,0.1-0.2C71.7,3.4,71.6,3.3,71.5,3.3"/>
		<path id="Caminho_164" class="st1" d="M105.1,8.7v9.3h-2.8c-0.6,0-1-0.4-1.1-0.9c0-0.4-0.2-1.4-0.3-3.1H89.2v10.5h11.4v5.2H89.2
			v10.1l1.5,0.2c0.2,0,0.5,0.1,0.7,0.2c0.1,0,0.2,0,0.3,0c0.8,0.1,1.3,0.8,1.2,1.5v2.9H79v-2.8c-0.1-0.8,0.5-1.4,1.2-1.5
			c0.1,0,0.2,0,0.3,0c0.2,0,0.4-0.1,0.7-0.2l1.5-0.2V13.6l-1.5-0.2c-0.2,0-0.5-0.1-0.7-0.1c-0.1,0-0.2,0-0.3,0
			c-0.8-0.1-1.3-0.8-1.2-1.5v-3H105.1z"/>
		<path id="Caminho_165" class="st1" d="M152.5,13.2c-0.2,0-0.5,0-0.7,0.1l-1.4,0.2v26.3l1.4,0.2c0.2,0,0.5,0.1,0.7,0.2
			c0.1,0,0.2,0,0.3,0c0.7,0.1,1.3,0.8,1.2,1.5v2.9h-13.9v-2.8c-0.1-0.8,0.5-1.4,1.2-1.5c0,0,1.2-0.1,3.2-0.4V19.9c0-0.5,0-1,0-1.6
			l-10,20.1c-0.2,0.4-0.6,0.8-1,1.1c-0.4,0.3-0.9,0.4-1.4,0.4h-0.9c-0.5,0-1-0.1-1.4-0.4c-0.4-0.3-0.8-0.6-1-1.1l-10.2-20.1
			c0,0.5,0,1.1,0.1,1.6c0,0.5,0,0.9,0,1.4v18.6c2.1,0.3,3.1,0.4,3.2,0.4c0.7,0.1,1.3,0.8,1.2,1.5v2.9h-13.9v-2.9
			c-0.1-0.8,0.5-1.4,1.2-1.5c0.1,0,0.2,0,0.3,0c0.2-0.1,0.5-0.1,0.7-0.2l1.5-0.2V13.6l-1.5-0.2c-0.2,0-0.5-0.1-0.7-0.1
			c-0.1,0-0.2,0-0.3,0c-0.8-0.1-1.3-0.8-1.2-1.5v-3h9.4c0.2,0,0.4,0,0.6,0.1c0.2,0,0.3,0.2,0.4,0.3c0.2,0.2,0.3,0.4,0.4,0.6l10,19.7
			c0.3,0.5,0.5,1.1,0.7,1.6l0.7,1.7c0.2-0.6,0.4-1.1,0.7-1.7c0.2-0.6,0.5-1.1,0.8-1.7l9.9-19.6c0.1-0.2,0.2-0.4,0.4-0.6
			c0.1-0.2,0.3-0.3,0.5-0.3c0.2-0.1,0.4-0.1,0.6-0.1h9.4v2.9c0.1,0.8-0.5,1.4-1.2,1.5C152.6,13.2,152.5,13.2,152.5,13.2"/>
		<path id="Caminho_166" class="st1" d="M180.2,20c0-0.9-0.1-1.7-0.4-2.6c-0.3-0.7-0.7-1.4-1.3-1.9c-0.6-0.6-1.4-1-2.2-1.2
			c-1-0.3-2.1-0.5-3.2-0.5h-4.4v12.6h4.4c1.1,0,2.1-0.1,3.2-0.4c0.8-0.3,1.6-0.7,2.2-1.3c0.6-0.6,1.1-1.3,1.3-2
			C180.1,22,180.2,21,180.2,20 M186.8,20.1c0,1.6-0.3,3.2-0.9,4.8c-0.5,1.4-1.4,2.7-2.5,3.7c-1.2,1.1-2.7,1.9-4.3,2.4
			c-1.9,0.6-4,0.9-6,0.8h-4.4v8.2l1.5,0.2c0.2,0,0.5,0.1,0.7,0.2c0.1,0,0.2,0,0.3,0c0.7,0.1,1.3,0.8,1.2,1.5v2.9h-13.9v-2.9
			c-0.1-0.7,0.5-1.4,1.2-1.5c0.1,0,0.2,0,0.3,0c0.2-0.1,0.5-0.1,0.7-0.2l1.5-0.2V13.6l-1.5-0.2c-0.2,0-0.5-0.1-0.7-0.1
			c-0.1,0-0.2,0-0.3,0c-0.7-0.1-1.3-0.8-1.2-1.5v-3h14.6c2.1,0,4.1,0.2,6.1,0.8c1.6,0.5,3,1.3,4.3,2.4c1.1,1,2,2.2,2.5,3.5
			C186.5,16.9,186.8,18.5,186.8,20.1"/>
		<path id="Caminho_167" class="st1" d="M83.3,52.2v1h-3v2h2.6v1h-2.6v2.8H79v-6.9H83.3z"/>
		<path id="Caminho_168" class="st1" d="M85,54.2v3.1c0,0.2,0.1,0.5,0.2,0.7c0.2,0.2,0.4,0.3,0.6,0.2c0.2,0,0.4,0,0.6-0.1
			c0.2-0.1,0.4-0.2,0.5-0.4v-3.5h1.2v4.9h-0.7c-0.1,0-0.3-0.1-0.3-0.2v-0.4l-0.3,0.3c-0.1,0.1-0.2,0.2-0.4,0.2L86,59.1
			c-0.2,0-0.3,0-0.5,0c-0.2,0-0.5,0-0.7-0.1c-0.2-0.1-0.4-0.2-0.5-0.4c-0.1-0.2-0.3-0.4-0.3-0.6c-0.1-0.2-0.1-0.5-0.1-0.7v-3H85z"/>
		<path id="Caminho_169" class="st1" d="M89.4,59.1v-4.9h0.7c0.1,0,0.3,0.1,0.3,0.2v0.4l0.3-0.3l0.3-0.2c0.1-0.1,0.3-0.1,0.4-0.1
			c0.2,0,0.3,0,0.5,0c0.2,0,0.5,0,0.7,0.1c0.2,0.1,0.4,0.2,0.5,0.4c0.1,0.2,0.2,0.4,0.3,0.6c0.1,0.2,0.1,0.5,0.1,0.8v3.1h-1.2V56
			c0-0.3-0.1-0.5-0.2-0.7C92,55.1,91.7,55,91.5,55c-0.2,0-0.4,0.1-0.6,0.2c-0.2,0.1-0.4,0.2-0.5,0.4v3.5H89.4z"/>
		<path id="Caminho_170" class="st1" d="M96.6,58.2c0.2,0,0.4,0,0.6-0.2c0.2-0.1,0.3-0.3,0.5-0.4v-2.2c-0.1-0.2-0.3-0.3-0.4-0.3
			C97.1,55,97,55,96.8,55c-0.2,0-0.3,0-0.5,0.1c-0.1,0.1-0.3,0.2-0.4,0.3c-0.1,0.2-0.2,0.3-0.2,0.5c-0.1,0.2-0.1,0.5-0.1,0.7
			c0,0.2,0,0.5,0,0.7c0,0.2,0.1,0.3,0.2,0.5c0.1,0.1,0.2,0.2,0.3,0.3C96.3,58.2,96.4,58.2,96.6,58.2 M98.1,59
			c-0.1,0-0.3-0.1-0.3-0.2l0.1-0.4l-0.3,0.3l-0.4,0.2l-0.4,0.2c-0.2,0-0.3,0-0.5,0c-0.3,0-0.5-0.1-0.7-0.2c-0.2-0.1-0.4-0.3-0.6-0.5
			c-0.2-0.2-0.3-0.5-0.4-0.8c-0.1-0.3-0.1-0.7-0.1-1.1c0-0.3,0.1-0.7,0.2-1c0.1-0.3,0.2-0.6,0.4-0.8c0.2-0.2,0.4-0.4,0.7-0.5
			c0.7-0.4,1.5-0.3,2.1,0.3V52H99v7.1L98.1,59z"/>
		<path id="Caminho_171" class="st1" d="M101.7,58.4c0.1,0,0.2,0,0.3,0c0.1,0,0.2,0,0.3,0l0.2-0.2l0.3-0.2v-0.8c-0.3,0-0.6,0-0.9,0
			c-0.2,0-0.4,0.1-0.5,0.2c-0.1,0-0.2,0.1-0.3,0.2c0,0.1,0,0.2,0,0.3c0,0.2,0,0.3,0.2,0.4C101.4,58.4,101.5,58.4,101.7,58.4
			 M104,59.1h-0.5c-0.1,0-0.2,0-0.2,0c-0.1,0-0.1-0.1-0.2-0.2v-0.4l-0.4,0.3c-0.1,0.1-0.2,0.2-0.4,0.2l-0.4,0.1h-0.5
			c-0.2,0-0.4,0-0.6-0.1c-0.2,0-0.3-0.1-0.4-0.2c-0.1-0.1-0.2-0.3-0.3-0.4c-0.1-0.2-0.1-0.4-0.1-0.6c0-0.2,0-0.4,0.1-0.5
			c0.1-0.2,0.3-0.4,0.5-0.5c0.3-0.2,0.6-0.3,0.9-0.4c0.5-0.1,0.9-0.1,1.4-0.1V56c0-0.3-0.1-0.5-0.2-0.7c-0.2-0.2-0.4-0.3-0.6-0.2
			c-0.2,0-0.3,0-0.5,0c-0.1,0-0.2,0.1-0.3,0.2l-0.2,0.2c-0.1,0-0.2,0-0.3,0c-0.1,0-0.1,0-0.2,0c-0.1,0-0.1-0.1-0.1-0.2l-0.2-0.4
			c0.5-0.5,1.3-0.8,2-0.8c0.3,0,0.5,0,0.8,0.2c0.2,0.1,0.4,0.2,0.6,0.4c0.2,0.2,0.3,0.4,0.4,0.6c0.1,0.2,0.1,0.5,0.1,0.8L104,59.1z"
			/>
		<path id="Caminho_172" class="st1" d="M106.5,60.3h0.3c0.1,0,0.2,0,0.2,0c0,0,0,0,0-0.1s0-0.2-0.2-0.2l-0.5-0.1l0.2-0.6
			c-0.2,0-0.5-0.1-0.7-0.3c-0.2-0.1-0.4-0.3-0.6-0.5c-0.2-0.2-0.3-0.5-0.4-0.8c-0.1-0.3-0.1-0.6-0.1-0.9c0-0.3,0.1-0.7,0.2-1
			c0.1-0.3,0.3-0.6,0.5-0.8c0.2-0.2,0.5-0.4,0.7-0.5c0.3-0.1,0.7-0.2,1-0.2c0.3,0,0.7,0.1,1,0.2c0.3,0.1,0.5,0.3,0.7,0.5l-0.3,0.4
			h-0.2c-0.1,0-0.1,0-0.2,0l-0.2-0.1c-0.1-0.1-0.2-0.1-0.3-0.1c-0.1,0-0.3,0-0.4,0c-0.2,0-0.4,0-0.5,0.1c-0.2,0.1-0.3,0.2-0.4,0.3
			c-0.1,0.2-0.2,0.3-0.2,0.5c-0.1,0.2-0.1,0.5-0.1,0.7c0,0.2,0,0.5,0.1,0.7c0,0.2,0.1,0.4,0.2,0.5c0.2,0.3,0.5,0.4,0.9,0.4
			c0.2,0,0.3,0,0.5,0c0.1,0,0.2-0.1,0.3-0.2l0.2-0.2c0.1,0,0.3,0,0.4,0.1l0.3,0.4c-0.2,0.3-0.4,0.4-0.7,0.6
			c-0.3,0.1-0.5,0.2-0.8,0.2v0.2c0.2,0,0.4,0.1,0.6,0.3c0.1,0.1,0.2,0.3,0.2,0.4c0,0.1,0,0.2,0,0.3c-0.1,0.1-0.2,0.2-0.2,0.2
			c-0.1,0.1-0.2,0.1-0.4,0.2c-0.2,0-0.3,0-0.5,0h-0.7l0.1-0.4c0-0.1,0.1-0.1,0.1-0.1"/>
		<path id="Caminho_173" class="st1" d="M111.2,58.4c0.1,0,0.2,0,0.3,0c0.1,0,0.2,0,0.3,0l0.3-0.2l0.2-0.2v-0.8c-0.3,0-0.6,0-0.9,0
			c-0.2,0-0.4,0.1-0.5,0.2c-0.2,0.1-0.4,0.3-0.4,0.5c0,0.2,0.1,0.3,0.2,0.4C110.8,58.4,111,58.4,111.2,58.4 M112.1,52.7
			c0.1,0,0.1,0,0.2,0c0.1-0.1,0.1-0.2,0.1-0.3h0.7c0,0.2-0.1,0.5-0.3,0.7c-0.1,0.1-0.2,0.2-0.3,0.2c-0.1,0-0.3,0-0.4,0
			c-0.1,0-0.2,0-0.3,0c-0.1,0-0.2-0.1-0.3-0.1l-0.2-0.1h-0.2c-0.1,0-0.1,0-0.2,0c0,0.1,0,0.2,0,0.3h-0.7c0-0.2,0-0.3,0-0.5
			c0-0.1,0.1-0.3,0.2-0.4c0.1-0.1,0.2-0.2,0.3-0.2c0.1,0,0.3,0,0.4,0c0.1,0,0.2,0,0.3,0l0.3,0.1l0.2,0.1c0.1,0,0.1,0,0.2,0
			 M113.5,59H113c-0.1,0-0.2,0-0.3,0c-0.1,0-0.1-0.1-0.1-0.2l-0.1-0.4l-0.4,0.3l-0.4,0.2c-0.1,0.1-0.3,0.1-0.4,0.1h-0.5
			c-0.2,0-0.4,0-0.6-0.1c-0.2,0-0.3-0.1-0.5-0.2c-0.1-0.1-0.2-0.3-0.3-0.4c-0.1-0.2-0.1-0.4-0.1-0.6c0-0.2,0.1-0.4,0.2-0.5
			c0.1-0.2,0.3-0.4,0.5-0.5c0.3-0.2,0.6-0.3,0.9-0.4c0.5-0.1,0.9-0.1,1.4-0.1v-0.3c0-0.3,0-0.5-0.2-0.7c-0.2-0.2-0.4-0.3-0.6-0.2
			c-0.2,0-0.3,0-0.5,0l-0.3,0.2l-0.3,0.2c-0.1,0-0.2,0-0.3,0c-0.1,0-0.1,0-0.2,0l-0.2-0.2l-0.2-0.4c0.6-0.5,1.3-0.8,2-0.8
			c0.3,0,0.5,0.1,0.8,0.2c0.2,0.1,0.4,0.2,0.6,0.4c0.2,0.2,0.3,0.4,0.3,0.6c0.1,0.2,0.1,0.5,0.1,0.8L113.5,59z"/>
		<path id="Caminho_174" class="st1" d="M116.8,58.2c0.3,0,0.7-0.1,0.9-0.4c0.2-0.4,0.3-0.8,0.3-1.2c0-0.4-0.1-0.9-0.3-1.2
			c-0.2-0.3-0.5-0.4-0.9-0.4c-0.4,0-0.7,0.1-0.9,0.4c-0.4,0.7-0.4,1.6,0,2.4C116.1,58.1,116.5,58.3,116.8,58.2 M116.8,54.1
			c0.3,0,0.7,0.1,1,0.2c0.3,0.1,0.5,0.3,0.8,0.5c0.2,0.2,0.4,0.5,0.5,0.8c0.2,0.7,0.2,1.4,0,2.1c-0.1,0.3-0.3,0.6-0.5,0.8
			c-0.2,0.2-0.5,0.4-0.8,0.5c-0.3,0.1-0.6,0.2-1,0.2c-0.3,0-0.7-0.1-1-0.2c-0.3-0.1-0.5-0.3-0.8-0.5c-0.2-0.2-0.4-0.5-0.5-0.8
			c-0.2-0.7-0.2-1.4,0-2.1c0.1-0.3,0.3-0.6,0.5-0.8c0.2-0.2,0.5-0.4,0.8-0.5C116.2,54.2,116.5,54.1,116.8,54.1"/>
		<path id="Caminho_175" class="st1" d="M126.3,52.2v1h-3v1.9h2.4v1h-2.4v2h3v1H122v-6.9H126.3z"/>
		<path id="Caminho_176" class="st1" d="M130.3,55.1l-0.1,0.1h-0.3l-0.2-0.1c-0.1,0-0.2-0.1-0.3-0.1c-0.1,0-0.3,0-0.4,0
			c-0.2,0-0.4,0-0.5,0.2c-0.1,0.1-0.2,0.2-0.2,0.4c0,0.1,0,0.2,0.1,0.2c0.1,0.1,0.2,0.2,0.3,0.2l0.4,0.2l0.4,0.1l0.5,0.2
			c0.1,0.1,0.3,0.1,0.4,0.2c0.1,0.1,0.2,0.2,0.3,0.4c0,0.2,0,0.3,0,0.5c0,0.2,0,0.5-0.1,0.7c-0.1,0.2-0.2,0.4-0.4,0.5
			c-0.2,0.1-0.4,0.2-0.6,0.3c-0.3,0.1-0.6,0.1-0.8,0.1H128l-0.5-0.1c-0.1,0-0.3-0.1-0.4-0.2c-0.1-0.1-0.2-0.1-0.3-0.2l0.3-0.4
			c0-0.1,0.1-0.1,0.1-0.1h0.2c0.1,0,0.1,0,0.2,0l0.2,0.1l0.4,0.1c0.2,0,0.3,0,0.5,0c0.1,0,0.2,0,0.3,0c0.1,0,0.2-0.1,0.3-0.1
			c0.1-0.1,0.1-0.1,0.1-0.2c0-0.1,0-0.2,0-0.2c0-0.1,0-0.2,0-0.3c-0.1-0.1-0.2-0.1-0.3-0.2l-0.4-0.1l-0.5-0.2
			c-0.2,0-0.3-0.1-0.4-0.2c-0.1-0.1-0.2-0.2-0.3-0.3c-0.1-0.1-0.2-0.2-0.3-0.4c0-0.2,0-0.4,0-0.5c0-0.2,0-0.4,0.1-0.6
			c0.1-0.2,0.2-0.3,0.3-0.5c0.2-0.1,0.4-0.3,0.6-0.3c0.3-0.1,0.5-0.1,0.8-0.1c0.3,0,0.6,0.1,0.9,0.2c0.3,0.1,0.5,0.2,0.7,0.4
			L130.3,55.1z"/>
		<path id="Caminho_177" class="st1" d="M134.9,55.2h-0.2c-0.1,0-0.1,0-0.2,0l-0.2-0.1c-0.1-0.1-0.2-0.1-0.3-0.1c-0.1,0-0.3,0-0.4,0
			c-0.2,0-0.4,0-0.5,0.1c-0.2,0.1-0.3,0.2-0.4,0.3c-0.1,0.2-0.2,0.3-0.2,0.5c0,0.2,0,0.4,0,0.7c0,0.2,0,0.5,0.1,0.7
			c0,0.2,0.1,0.4,0.2,0.5c0.1,0.1,0.2,0.2,0.4,0.3c0.2,0.1,0.3,0.1,0.5,0.1c0.2,0,0.3,0,0.5,0l0.3-0.2l0.2-0.2c0.1,0,0.1,0,0.2,0
			c0.1,0,0.2,0,0.2,0.1l0.3,0.4c-0.1,0.1-0.3,0.3-0.4,0.4l-0.5,0.2l-0.7,0h-0.5c-0.3,0-0.6-0.1-0.9-0.2c-0.3-0.1-0.5-0.3-0.7-0.5
			c-0.2-0.2-0.4-0.5-0.5-0.8c-0.1-0.3-0.2-0.7-0.2-1.1c0-0.3,0.1-0.7,0.2-1c0.1-0.3,0.2-0.6,0.5-0.8c0.2-0.2,0.5-0.4,0.7-0.5
			c0.3-0.1,0.7-0.2,1-0.2c0.3,0,0.7,0.1,1,0.2c0.3,0.1,0.5,0.3,0.7,0.5L134.9,55.2z"/>
		<path id="Caminho_178" class="st1" d="M138.1,58.2c0.3,0,0.7-0.1,0.9-0.4c0.2-0.4,0.3-0.8,0.3-1.2c0-0.4-0.1-0.9-0.3-1.2
			c-0.2-0.3-0.5-0.4-0.9-0.4c-0.4,0-0.7,0.1-0.9,0.4c-0.4,0.7-0.4,1.6,0,2.4C137.4,58.1,137.8,58.3,138.1,58.2 M138.1,54.1
			c0.3,0,0.7,0.1,1,0.2c0.3,0.1,0.5,0.3,0.8,0.5c0.2,0.2,0.4,0.5,0.5,0.8c0.2,0.7,0.2,1.4,0,2.1c-0.1,0.3-0.3,0.6-0.5,0.8
			c-0.2,0.2-0.5,0.4-0.8,0.5c-0.6,0.2-1.3,0.2-1.9,0c-0.3-0.1-0.5-0.3-0.8-0.5c-0.2-0.2-0.4-0.5-0.5-0.8c-0.2-0.7-0.2-1.4,0-2.1
			c0.1-0.3,0.3-0.6,0.5-0.8c0.2-0.2,0.5-0.4,0.8-0.5C137.6,54.2,137.9,54.1,138.1,54.1"/>
		<rect id="Retângulo_1092" x="141.5" y="52" class="st1" width="1.2" height="7.1"/>
		<path id="Caminho_179" class="st1" d="M145.6,58.4c0.1,0,0.2,0,0.3,0c0.1,0,0.2,0,0.3,0l0.2-0.2l0.3-0.2v-0.8c-0.3,0-0.6,0-0.9,0
			c-0.2,0-0.4,0.1-0.5,0.2c-0.1,0-0.2,0.1-0.3,0.2c0,0.1,0,0.2,0,0.3c0,0.2,0,0.3,0.2,0.4C145.3,58.4,145.5,58.4,145.6,58.4
			 M147.9,59.2h-0.6c-0.1,0-0.2,0-0.2,0c-0.1,0-0.1-0.1-0.2-0.2v-0.4l-0.4,0.3c-0.1,0.1-0.2,0.2-0.4,0.2l-0.4,0.1h-0.5
			c-0.2,0-0.4,0-0.6-0.1c-0.2,0-0.3-0.1-0.4-0.2c-0.1-0.1-0.2-0.3-0.3-0.4c-0.1-0.2-0.1-0.4-0.1-0.6c0-0.2,0-0.4,0.1-0.5
			c0.1-0.2,0.3-0.4,0.5-0.5c0.2-0.2,0.5-0.3,0.7-0.4c0.5-0.1,0.9-0.1,1.4-0.1v-0.3c0-0.3-0.1-0.5-0.2-0.7c-0.2-0.2-0.4-0.3-0.6-0.2
			c-0.2,0-0.3,0-0.5,0c-0.1,0-0.2,0.1-0.3,0.2l-0.2,0.2c-0.1,0-0.2,0-0.3,0c-0.1,0-0.1,0-0.2,0c-0.1,0-0.1-0.1-0.1-0.2l-0.2-0.4
			c0.5-0.5,1.3-0.8,2-0.8c0.3,0,0.5,0,0.8,0.2c0.2,0.1,0.4,0.2,0.6,0.4c0.2,0.2,0.3,0.4,0.4,0.6c0.1,0.2,0.1,0.5,0.1,0.8L147.9,59.2
			z"/>
		<path id="Caminho_180" class="st1" d="M154.6,53.5c0,0.1-0.1,0.1-0.1,0.2h-0.2c-0.1,0-0.1,0-0.2,0l-0.3-0.2
			c-0.1-0.1-0.2-0.1-0.4-0.2c-0.2,0-0.3,0-0.5,0c-0.2,0-0.3,0-0.5,0c-0.1,0-0.2,0.1-0.3,0.2c-0.1,0.1-0.2,0.2-0.2,0.3
			c0,0.1,0,0.2,0,0.3c0,0.2,0,0.3,0.1,0.4c0.1,0.1,0.2,0.2,0.4,0.3c0.2,0.1,0.3,0.2,0.5,0.2l0.6,0.2l0.6,0.2
			c0.2,0.1,0.4,0.2,0.5,0.3c0.2,0.1,0.3,0.3,0.4,0.5c0.1,0.2,0.1,0.5,0.1,0.7c0,0.3,0,0.6-0.2,0.9c-0.2,0.6-0.7,1-1.2,1.2
			c-0.3,0.1-0.7,0.2-1,0.2c-0.2,0-0.4,0-0.6,0c-0.2,0-0.4-0.1-0.6-0.2c-0.4-0.1-0.7-0.4-1-0.7l0.4-0.6c0,0,0.1-0.1,0.1-0.1h0.2
			c0.1,0,0.2,0,0.3,0.1l0.3,0.2c0.1,0.1,0.3,0.2,0.4,0.2c0.2,0.1,0.4,0.1,0.6,0.1c0.3,0,0.6-0.1,0.9-0.3c0.2-0.2,0.3-0.5,0.3-0.7
			c0-0.2,0-0.3-0.1-0.5c-0.1-0.1-0.2-0.2-0.4-0.3c-0.2-0.1-0.3-0.1-0.5-0.2l-0.6-0.2c-0.2-0.1-0.4-0.1-0.6-0.2
			c-0.2-0.1-0.4-0.2-0.5-0.3c-0.2-0.2-0.3-0.3-0.4-0.5c-0.1-0.3-0.1-0.5-0.1-0.8c0-0.3,0-0.5,0.2-0.7c0.1-0.2,0.2-0.4,0.4-0.6
			c0.2-0.2,0.4-0.4,0.7-0.5c0.3-0.1,0.6-0.2,0.9-0.2c0.4,0,0.8,0.1,1.1,0.2c0.3,0.1,0.6,0.3,0.9,0.5L154.6,53.5z"/>
		<path id="Caminho_181" class="st1" d="M157,54.2v3.1c0,0.2,0.1,0.5,0.2,0.7c0.2,0.2,0.4,0.3,0.6,0.2c0.2,0,0.4,0,0.6-0.1
			c0.2-0.1,0.4-0.2,0.5-0.4v-3.5h1.2v4.9h-0.7c-0.1,0-0.3-0.1-0.3-0.2v-0.4l-0.3,0.3l-0.3,0.2c-0.1,0.1-0.3,0.1-0.4,0.1
			c-0.2,0-0.3,0-0.5,0c-0.2,0-0.5,0-0.7-0.1c-0.2-0.1-0.4-0.2-0.5-0.4c-0.2-0.2-0.3-0.4-0.3-0.6c-0.1-0.2-0.1-0.5-0.1-0.7v-3H157z"
			/>
		<path id="Caminho_182" class="st1" d="M163.6,55c-0.2,0-0.4,0.1-0.6,0.2c-0.2,0.1-0.4,0.3-0.5,0.4v2.2c0.1,0.2,0.3,0.3,0.4,0.3
			c0.2,0.1,0.3,0.1,0.5,0.1c0.3,0,0.6-0.1,0.9-0.4c0.1-0.2,0.2-0.3,0.2-0.5c0-0.2,0-0.5,0-0.7c0-0.2,0-0.5,0-0.7
			c0-0.2-0.1-0.3-0.2-0.5c-0.1-0.1-0.2-0.2-0.3-0.3C163.9,55.1,163.8,55,163.6,55 M161.3,60.7v-6.5h0.7c0.1,0,0.1,0,0.2,0
			c0.1,0,0.1,0.1,0.1,0.2v0.5c0.2-0.2,0.4-0.4,0.7-0.5c0.3-0.1,0.6-0.2,0.9-0.2c0.3,0,0.5,0.1,0.7,0.2c0.2,0.1,0.4,0.3,0.6,0.5
			c0.2,0.2,0.3,0.5,0.4,0.8c0.1,0.3,0.1,0.7,0.1,1.1c0,0.3,0,0.7-0.2,1c-0.1,0.3-0.2,0.6-0.4,0.8c-0.2,0.2-0.4,0.4-0.7,0.5
			c-0.3,0.1-0.6,0.2-0.9,0.2c-0.2,0-0.5,0-0.7-0.1c-0.2-0.1-0.4-0.2-0.5-0.4v2L161.3,60.7z"/>
		<path id="Caminho_183" class="st1" d="M168.8,55c-0.3,0-0.6,0.1-0.8,0.3c-0.2,0.2-0.3,0.5-0.4,0.8h2.3c0-0.1,0-0.3,0-0.4
			c0-0.1-0.1-0.3-0.2-0.4c-0.1-0.1-0.2-0.2-0.3-0.2c-0.2,0-0.3,0-0.5,0 M168.9,54.2c0.3,0,0.6,0.1,0.8,0.2c0.3,0.1,0.5,0.2,0.7,0.4
			c0.2,0.2,0.3,0.4,0.4,0.7c0.1,0.3,0.2,0.6,0.2,0.9v0.4h-3.4c0,0.4,0.1,0.8,0.4,1.1c0.2,0.2,0.6,0.4,0.9,0.4c0.2,0,0.3,0,0.5,0
			l0.4-0.2l0.3-0.1c0.1,0,0.1,0,0.2,0h0.1l0.3,0.4c-0.1,0.1-0.3,0.3-0.4,0.4l-0.5,0.2l-0.5,0.1h-0.5c-0.3,0-0.6-0.1-0.9-0.2
			c-0.3-0.1-0.6-0.3-0.8-0.5c-0.2-0.2-0.4-0.5-0.5-0.8c-0.2-0.7-0.2-1.4,0-2.1c0.1-0.3,0.3-0.5,0.5-0.8c0.2-0.2,0.5-0.4,0.7-0.5
			c0.3-0.1,0.6-0.2,1-0.2"/>
		<path id="Caminho_184" class="st1" d="M171.8,59.1v-4.9h0.9c0,0,0,0.1,0,0.2V55c0.2-0.3,0.4-0.5,0.6-0.7c0.2-0.2,0.5-0.3,0.8-0.3
			c0.2,0,0.4,0.1,0.6,0.2l-0.2,0.9c0,0,0,0.1,0,0.1h-0.7c-0.2,0-0.4,0.1-0.6,0.2c-0.2,0.2-0.3,0.4-0.4,0.6v3L171.8,59.1z"/>
		<path id="Caminho_185" class="st1" d="M177,59.1h-1.2v-4.9h1.2V59.1z M177.1,52.8c0,0.1,0,0.2,0,0.3c0,0.1-0.1,0.2-0.2,0.2
			c-0.1,0.1-0.2,0.1-0.2,0.2c-0.1,0-0.2,0-0.3,0c-0.3,0.1-0.6-0.1-0.7-0.4c0,0,0,0,0,0c-0.1-0.2-0.1-0.4,0-0.6
			c0.1-0.3,0.4-0.5,0.7-0.4c0,0,0,0,0,0c0.1,0,0.2,0,0.3,0c0.1,0,0.2,0.1,0.2,0.2c0.1,0.1,0.1,0.2,0.2,0.2
			C177.2,52.6,177.2,52.7,177.1,52.8"/>
		<path id="Caminho_186" class="st1" d="M180.4,58.2c0.3,0,0.7-0.1,0.9-0.4c0.2-0.4,0.3-0.8,0.3-1.2c0-0.4-0.1-0.9-0.3-1.2
			c-0.2-0.3-0.5-0.4-0.9-0.4c-0.4,0-0.7,0.1-0.9,0.4c-0.4,0.7-0.4,1.6,0,2.4C179.7,58.1,180,58.3,180.4,58.2 M180.4,54.1
			c0.3,0,0.7,0.1,1,0.2c0.3,0.1,0.5,0.3,0.8,0.5c0.2,0.2,0.4,0.5,0.5,0.8c0.2,0.7,0.2,1.4,0,2.1c-0.1,0.3-0.3,0.6-0.5,0.8
			c-0.2,0.2-0.5,0.4-0.8,0.5c-0.3,0.1-0.6,0.2-1,0.2c-0.3,0-0.7-0.1-1-0.2c-0.3-0.1-0.5-0.3-0.8-0.5c-0.2-0.2-0.4-0.5-0.5-0.8
			c-0.2-0.7-0.2-1.4,0-2.1c0.1-0.3,0.3-0.6,0.5-0.8c0.2-0.2,0.5-0.4,0.8-0.5C179.7,54.2,180,54.1,180.4,54.1"/>
		<path id="Caminho_187" class="st1" d="M183.7,59.1v-4.9h0.9c0,0,0,0.1,0,0.2V55c0.2-0.3,0.4-0.5,0.6-0.7c0.2-0.2,0.5-0.3,0.8-0.3
			c0.2,0,0.4,0.1,0.6,0.2l-0.2,0.9c0,0,0,0.1,0,0.1h-0.6c-0.2,0-0.4,0.1-0.6,0.2c-0.2,0.2-0.3,0.4-0.5,0.6v3L183.7,59.1z"/>
		<path id="Caminho_188" class="st1" d="M80.9,68.7h0.5l0.2-0.2l0.2-0.2v-2.2c-0.1-0.1-0.2-0.2-0.4-0.2c-0.1,0-0.3,0-0.4,0
			c-0.1,0-0.3,0-0.4,0c-0.1,0.1-0.2,0.2-0.3,0.3c-0.1,0.1-0.2,0.3-0.2,0.5c0,0.2,0,0.5,0,0.7c0,0.2,0,0.4,0,0.6
			c0,0.2,0.1,0.3,0.2,0.4c0.1,0.1,0.1,0.2,0.2,0.2C80.7,68.7,80.8,68.7,80.9,68.7 M82.4,69.7c-0.1,0-0.2,0-0.2,0
			c-0.1,0-0.1-0.1-0.1-0.2l-0.1-0.4c-0.1,0.1-0.2,0.2-0.3,0.3c-0.1,0.1-0.2,0.2-0.4,0.2c-0.1,0.1-0.3,0.1-0.4,0.1
			c-0.2,0-0.3,0-0.5,0c-0.2,0-0.5-0.1-0.7-0.2c-0.2-0.1-0.4-0.3-0.6-0.5c-0.2-0.2-0.3-0.5-0.4-0.8c-0.1-0.3-0.1-0.7-0.1-1.1
			c0-0.3,0-0.7,0.2-1c0.1-0.3,0.2-0.6,0.4-0.8c0.2-0.2,0.4-0.4,0.7-0.5c0.3-0.1,0.6-0.2,0.9-0.2c0.2,0,0.4,0,0.6,0.1
			c0.2,0.1,0.3,0.2,0.5,0.3v-2.4h1.5v7L82.4,69.7z"/>
		<path id="Caminho_189" class="st1" d="M86.5,68.8c0.3,0,0.6-0.1,0.8-0.4c0.2-0.3,0.3-0.7,0.2-1.1c0-0.4-0.1-0.8-0.2-1.1
			c-0.2-0.2-0.5-0.3-0.8-0.3c-0.3,0-0.6,0.1-0.8,0.4c-0.3,0.7-0.3,1.5,0,2.2C86,68.7,86.2,68.9,86.5,68.8 M86.5,64.9
			c0.3,0,0.7,0.1,1,0.2c0.6,0.2,1.1,0.7,1.3,1.3c0.1,0.3,0.2,0.7,0.2,1c0,0.4-0.1,0.7-0.2,1.1c-0.1,0.3-0.3,0.6-0.5,0.8
			c-0.2,0.2-0.5,0.4-0.8,0.5c-0.3,0.1-0.7,0.2-1,0.2c-0.3,0-0.7-0.1-1-0.2c-0.3-0.1-0.6-0.3-0.8-0.5c-0.2-0.2-0.4-0.5-0.5-0.8
			c-0.2-0.7-0.2-1.4,0-2.1c0.2-0.6,0.7-1.1,1.3-1.3C85.8,64.9,86.2,64.8,86.5,64.9"/>
		<path id="Caminho_190" class="st1" d="M95.4,67l0.2,0.4l0.2-0.4l0.2-0.4l1.8-3.5c0,0,0-0.1,0.1-0.1c0.1,0,0,0,0.1,0h1.6v6.7h-1.4
			v-4.6l-1.9,3.6c0,0.1-0.1,0.2-0.2,0.3c-0.1,0-0.2,0-0.3,0h-0.2c-0.2,0.1-0.4,0-0.5-0.2c0,0,0,0,0-0.1l-1.9-3.6c0,0.1,0,0.2,0,0.3
			v4.3h-1.4v-6.9h1.5c0,0,0.1,0,0.1,0c0,0,0,0.1,0,0.1l1.9,3.5l0.2,0.4"/>
		<path id="Caminho_191" class="st1" d="M102.2,69.7h-1.5v-4.9h1.5L102.2,69.7z M102.3,63.4c0,0.1,0,0.2,0,0.3
			c-0.1,0.1-0.1,0.2-0.2,0.3c-0.1,0.1-0.2,0.1-0.3,0.2c-0.2,0.1-0.5,0.1-0.7,0l-0.3-0.2c-0.1-0.1-0.1-0.2-0.2-0.3c0-0.1,0-0.2,0-0.3
			c0-0.1,0-0.2,0-0.3c0-0.1,0.1-0.2,0.2-0.3c0.1-0.1,0.2-0.1,0.3-0.2c0.2-0.1,0.5-0.1,0.7,0c0.1,0,0.2,0.1,0.3,0.2
			c0.1,0.1,0.2,0.2,0.2,0.3C102.3,63.2,102.3,63.3,102.3,63.4"/>
		<path id="Caminho_192" class="st1" d="M103.3,69.7v-4.9h1.2c0.1,0,0.1,0.1,0.1,0.2v0.3l0.3-0.2c0.1-0.1,0.2-0.1,0.3-0.2l0.4-0.1
			c0.1,0,0.3,0,0.4,0c0.2,0,0.5,0,0.7,0.1c0.2,0.1,0.4,0.2,0.5,0.4c0.1,0.2,0.3,0.4,0.3,0.6c0,0.3,0,0.5,0,0.8v3.1h-1.5v-3
			c0-0.2,0-0.4-0.2-0.6c-0.1-0.1-0.3-0.2-0.5-0.2c-0.2,0-0.3,0-0.5,0.1c-0.2,0.1-0.3,0.2-0.4,0.3v3.4L103.3,69.7z"/>
		<path id="Caminho_193" class="st1" d="M110.4,69.7h-1.5v-4.9h1.5V69.7z M110.5,63.4c0,0.1,0,0.2,0,0.3c0,0.1-0.1,0.2-0.2,0.3
			c-0.1,0.1-0.2,0.1-0.3,0.2c-0.1,0-0.2,0-0.4,0c-0.1,0-0.2,0-0.3,0c-0.1,0-0.2-0.1-0.3-0.2c-0.1-0.1-0.1-0.2-0.2-0.3
			c0-0.1,0-0.2,0-0.3c0-0.1,0-0.2,0-0.3c0.1-0.2,0.2-0.3,0.3-0.4c0.1,0,0.2,0,0.3,0c0.1,0,0.2,0,0.4,0c0.2,0.1,0.4,0.3,0.5,0.5
			c0,0.1,0,0.2,0,0.3"/>
		<path id="Caminho_194" class="st1" d="M114.6,65.9c0,0-0.1,0.1-0.1,0.1c-0.1,0-0.1,0-0.2,0c-0.1,0-0.1,0-0.2,0h-0.2
			c-0.1,0-0.2-0.1-0.3-0.1c-0.1,0-0.2,0-0.3,0c-0.2,0-0.3,0-0.4,0.1c-0.1,0.1-0.2,0.2-0.2,0.3c0,0.1,0,0.2,0.1,0.2
			c0.1,0.1,0.2,0.1,0.2,0.2l0.4,0.1l0.4,0.1l0.4,0.2c0.1,0.1,0.3,0.1,0.4,0.2c0.1,0.1,0.2,0.2,0.3,0.4c0,0.2,0,0.3,0,0.5
			c0,0.2,0,0.5-0.1,0.7c-0.1,0.2-0.2,0.4-0.4,0.5c-0.2,0.2-0.4,0.3-0.6,0.4c-0.3,0.1-0.6,0.1-0.9,0.1h-0.5l-0.4-0.3l-0.4-0.2
			c-0.1-0.1-0.2-0.2-0.3-0.2l0.3-0.5l0.2-0.2c0.1,0,0.2,0,0.2,0c0.1,0,0.2,0,0.2,0l0.2,0.1l0.3,0.1c0.1,0,0.3,0,0.4,0h0.5
			c0-0.1,0-0.1,0-0.2c0,0,0-0.1,0-0.2c0-0.1,0-0.2-0.1-0.2l-0.3-0.2l-0.4-0.1l-0.3-0.2l-0.4-0.2c-0.1-0.1-0.3-0.2-0.4-0.3
			c-0.1-0.1-0.2-0.3-0.3-0.4c0-0.2,0-0.4,0-0.6c0-0.2,0-0.4,0.1-0.6c0.1-0.2,0.2-0.4,0.4-0.5c0.2-0.1,0.4-0.3,0.6-0.3
			c0.3-0.1,0.6-0.1,0.9-0.1c0.2,0,0.3,0,0.5,0l0.5,0.1l0.4,0.2c0.1,0.1,0.2,0.2,0.3,0.2L114.6,65.9z"/>
		<path id="Caminho_195" class="st1" d="M117.5,69.9c-0.2,0-0.4-0.1-0.6-0.2c-0.2-0.1-0.3-0.2-0.4-0.3c-0.1-0.1-0.2-0.3-0.3-0.5
			c-0.1-0.2-0.1-0.4-0.1-0.6v-2.4h-0.4c-0.1,0-0.1,0-0.2,0c0-0.1,0-0.1,0-0.2v-0.6l0.8-0.2l0.3-1.2c0-0.1,0.2-0.2,0.3-0.2h0.8V65
			h1.2v0.9h-1.2v2.5c0,0.1,0,0.2,0,0.3c0.1,0.1,0.2,0.1,0.2,0.1h0.3c0,0,0,0.1,0,0.1l0.5,0.7c-0.2,0.2-0.4,0.3-0.6,0.3
			c-0.2,0.1-0.5,0.1-0.7,0.1"/>
		<path id="Caminho_196" class="st1" d="M123.6,62.8l-1.3,1.3c-0.1,0.1-0.3,0.2-0.5,0.2H121l0.7-1.2c0.1-0.2,0.3-0.3,0.5-0.3
			L123.6,62.8z M121.7,65.8c-0.2,0-0.5,0.1-0.7,0.2c-0.2,0.2-0.3,0.4-0.3,0.7h1.9c0-0.1,0-0.2,0-0.4c0-0.1-0.1-0.2-0.2-0.3
			c-0.1-0.1-0.2-0.2-0.3-0.2C122.1,65.9,121.9,65.9,121.7,65.8 M121.8,64.9c0.3,0,0.6,0,0.9,0.2c0.3,0.1,0.5,0.2,0.7,0.4
			c0.2,0.2,0.4,0.4,0.5,0.7c0.1,0.3,0.2,0.6,0.2,1c0,0.1,0,0.2,0,0.3c0,0.1,0,0.1,0,0.2h-3.4c0,0.3,0.2,0.6,0.4,0.9
			c0.2,0.2,0.5,0.3,0.8,0.3c0.1,0,0.3,0,0.4,0l0.3-0.1l0.3-0.1c0.1,0,0.2,0,0.2,0c0.1,0,0.2,0,0.3,0.1l0.4,0.5
			c-0.1,0.2-0.3,0.3-0.5,0.4c-0.2,0.1-0.4,0.2-0.5,0.2c-0.2,0.1-0.4,0.1-0.5,0.1h-0.5c-0.3,0-0.7-0.1-1-0.2
			c-0.3-0.1-0.6-0.3-0.8-0.5c-0.2-0.2-0.4-0.5-0.5-0.8c-0.1-0.4-0.2-0.8-0.2-1.2c0-0.3,0.1-0.6,0.2-0.9c0.1-0.3,0.3-0.6,0.5-0.8
			c0.2-0.3,0.5-0.5,0.8-0.6c0.3-0.1,0.7-0.2,1-0.2"/>
		<path id="Caminho_197" class="st1" d="M124.7,69.7v-4.9h1.1c0,0,0.1,0,0.1,0c0,0,0,0.1,0,0.1v0.6c0.2-0.3,0.4-0.5,0.6-0.7
			c0.2-0.1,0.5-0.2,0.7-0.2c0.2,0,0.4,0,0.5,0.2l-0.2,1.1c0,0,0,0.1,0,0.2H127c-0.4,0-0.8,0.2-0.9,0.6v3.1L124.7,69.7z"/>
		<path id="Caminho_198" class="st1" d="M130.2,69.7h-1.5v-4.9h1.5V69.7z M130.4,63.4c0,0.1,0,0.2,0,0.3c-0.1,0.1-0.2,0.2-0.3,0.3
			l-0.3,0.2c-0.1,0-0.2,0-0.3,0c-0.1,0-0.2,0-0.3,0l-0.3-0.2c-0.1-0.1-0.1-0.2-0.2-0.3c0-0.1,0-0.2,0-0.3c0-0.1,0-0.2,0-0.3
			c0-0.1,0.1-0.2,0.2-0.3c0.1-0.1,0.2-0.1,0.3-0.2h0.3c0.1,0,0.2,0,0.3,0c0.1,0,0.2,0.1,0.3,0.2c0.1,0.1,0.1,0.2,0.2,0.3
			C130.3,63.2,130.3,63.3,130.4,63.4"/>
		<path id="Caminho_199" class="st1" d="M133.6,68.8c0.3,0,0.6-0.1,0.8-0.4c0.2-0.3,0.3-0.7,0.2-1.1c0-0.4-0.1-0.8-0.2-1.1
			c-0.2-0.2-0.5-0.4-0.8-0.4c-0.3,0-0.6,0.1-0.8,0.4c-0.3,0.7-0.3,1.5,0,2.2C133,68.7,133.3,68.8,133.6,68.8 M133.6,64.8
			c0.3,0,0.7,0.1,1,0.2c0.6,0.2,1.1,0.7,1.3,1.3c0.1,0.3,0.2,0.7,0.2,1c0,0.4-0.1,0.7-0.2,1.1c-0.1,0.3-0.3,0.6-0.5,0.8
			c-0.2,0.2-0.5,0.4-0.8,0.5c-0.3,0.1-0.7,0.2-1,0.2c-0.3,0-0.7-0.1-1-0.2c-0.3-0.1-0.6-0.3-0.8-0.5c-0.2-0.2-0.4-0.5-0.5-0.8
			c-0.1-0.3-0.2-0.7-0.2-1.1c0-0.4,0.1-0.7,0.2-1c0.1-0.3,0.3-0.6,0.5-0.8c0.2-0.2,0.5-0.4,0.8-0.5
			C132.9,64.9,133.2,64.8,133.6,64.8"/>
		<path id="Caminho_200" class="st1" d="M140.3,66.3h0.9c0.6,0.1,1.1-0.3,1.2-0.9c0-0.1,0-0.2,0-0.3c0-0.1,0-0.3,0-0.4
			c0-0.1-0.1-0.2-0.2-0.3c-0.1-0.1-0.2-0.2-0.4-0.2c-0.2,0-0.3,0-0.5,0h-0.9L140.3,66.3z M140.3,67.5v2.2h-1.6v-6.9h2.4
			c0.4,0,0.8,0,1.3,0.2c0.3,0.1,0.6,0.3,0.9,0.5c0.2,0.2,0.4,0.4,0.5,0.7c0.1,0.3,0.2,0.6,0.2,0.9c0,0.3-0.1,0.6-0.2,0.9
			c-0.1,0.3-0.3,0.5-0.5,0.7c-0.3,0.2-0.5,0.4-0.9,0.5c-0.4,0.1-0.8,0.2-1.2,0.2L140.3,67.5z"/>
		<path id="Caminho_201" class="st1" d="M148.8,62.8l-1.2,1.3c-0.1,0.1-0.3,0.2-0.5,0.2h-0.9l0.6-1.2c0.1-0.1,0.1-0.1,0.2-0.2
			c0.1,0,0.2,0,0.3,0L148.8,62.8z M146.2,64.9V68c0,0.2,0,0.4,0.2,0.6c0.1,0.1,0.3,0.2,0.5,0.2c0.2,0,0.3,0,0.5-0.1
			c0.2-0.1,0.3-0.2,0.4-0.3v-3.5h1.5v4.8h-0.9c-0.2,0-0.3-0.1-0.4-0.2l-0.1-0.3l-0.3,0.2c-0.1,0.1-0.2,0.2-0.4,0.3l-0.4,0.1h-0.4
			c-0.2,0-0.5,0-0.7-0.1c-0.2-0.1-0.4-0.2-0.5-0.4c-0.2-0.2-0.3-0.4-0.3-0.6c-0.1-0.2-0.1-0.5-0.1-0.7v-3.1H146.2z"/>
		<path id="Caminho_202" class="st1" d="M152.7,65.9h-0.5l-0.2,0.2l-0.2,0.2v2.1c0.1,0.1,0.2,0.2,0.4,0.3c0.1,0,0.3,0,0.4,0
			c0.1,0,0.3,0,0.4,0c0.1-0.1,0.2-0.2,0.3-0.3c0.1-0.1,0.2-0.3,0.2-0.5c0-0.2,0-0.5,0-0.7c0-0.2,0-0.4,0-0.7c0-0.2-0.1-0.3-0.2-0.4
			c-0.1-0.1-0.1-0.2-0.2-0.2C152.9,65.9,152.8,65.9,152.7,65.9 M150.3,69.7v-7h1.5v2.7c0.2-0.2,0.4-0.3,0.6-0.4
			c0.3-0.1,0.5-0.2,0.8-0.2c0.2,0,0.5,0.1,0.7,0.2c0.2,0.1,0.4,0.3,0.6,0.5c0.2,0.2,0.3,0.5,0.4,0.8c0.1,0.3,0.1,0.7,0.1,1.1
			c0,0.3-0.1,0.7-0.2,1c-0.1,0.3-0.2,0.6-0.4,0.8c-0.2,0.2-0.4,0.4-0.7,0.5c-0.3,0.1-0.6,0.2-0.9,0.2h-0.4l-0.3-0.2
			c-0.1,0-0.2-0.1-0.3-0.2c-0.1-0.1-0.2-0.1-0.2-0.2v0.2c0,0.1-0.1,0.2-0.1,0.2c-0.1,0-0.2,0-0.2,0L150.3,69.7z"/>
		<rect id="Retângulo_1093" x="155.9" y="62.7" class="st1" width="1.5" height="7.1"/>
		<path id="Caminho_203" class="st1" d="M160,69.7h-1.6v-4.9h1.5L160,69.7z M160.2,63.4c0,0.1,0,0.2,0,0.3c0,0.1-0.1,0.2-0.2,0.3
			c-0.1,0.1-0.2,0.1-0.3,0.2c-0.1,0-0.2,0-0.4,0c-0.1,0-0.2,0-0.3,0c-0.1,0-0.2-0.1-0.3-0.2c-0.1-0.1-0.1-0.2-0.2-0.3
			c0-0.1,0-0.2,0-0.3c0-0.1,0-0.2,0-0.3c0.1-0.2,0.3-0.4,0.5-0.5c0.1,0,0.2,0,0.3,0c0.1,0,0.2,0,0.4,0c0.2,0.1,0.4,0.3,0.5,0.5
			C160.2,63.2,160.2,63.3,160.2,63.4"/>
		<path id="Caminho_204" class="st1" d="M164.8,66l-0.1,0.1c-0.1,0-0.1,0-0.2,0c-0.1,0-0.1,0-0.2,0l-0.2-0.1
			c-0.1-0.1-0.2-0.1-0.3-0.1c-0.1,0-0.2,0-0.4,0c-0.2,0-0.3,0-0.5,0.1c-0.1,0.1-0.2,0.2-0.3,0.3c-0.1,0.1-0.2,0.3-0.2,0.5
			c0,0.2,0,0.4,0,0.6c0,0.4,0.1,0.8,0.3,1.1c0.2,0.2,0.5,0.4,0.8,0.4c0.1,0,0.3,0,0.4,0c0.1-0.1,0.2-0.2,0.3-0.3l0.2-0.2
			c0.1,0,0.2,0,0.2,0c0.1,0,0.2,0,0.3,0.1l0.4,0.5c-0.1,0.2-0.3,0.3-0.5,0.4c-0.2,0.1-0.4,0.2-0.6,0.2c-0.2,0.1-0.3,0.1-0.5,0.1
			h-0.5c-0.3,0-0.6,0-0.8-0.1c-0.3-0.1-0.5-0.3-0.7-0.5c-0.2-0.2-0.4-0.5-0.5-0.8c-0.1-0.3-0.2-0.7-0.2-1.1c0-0.3,0.1-0.7,0.2-1
			c0.1-0.3,0.3-0.6,0.5-0.8c0.2-0.2,0.5-0.4,0.8-0.5c0.3-0.1,0.7-0.2,1.1-0.2c0.3,0,0.7,0.1,1,0.2c0.3,0.1,0.6,0.3,0.8,0.5L164.8,66
			z"/>
		<path id="Caminho_205" class="st1" d="M168.1,68.8c0.3,0,0.6-0.1,0.7-0.4c0.3-0.7,0.3-1.5,0-2.2c-0.2-0.2-0.4-0.4-0.7-0.4
			c-0.3,0-0.6,0.1-0.8,0.4c-0.3,0.7-0.3,1.5,0,2.2C167.5,68.7,167.8,68.8,168.1,68.8 M168.1,64.8c0.3,0,0.7,0.1,1,0.2
			c0.3,0.1,0.6,0.3,0.8,0.5c0.2,0.2,0.4,0.5,0.5,0.8c0.3,0.7,0.3,1.4,0,2.1c-0.1,0.3-0.3,0.6-0.5,0.8c-0.2,0.2-0.5,0.4-0.8,0.5
			c-0.7,0.2-1.4,0.2-2,0c-0.3-0.1-0.6-0.3-0.8-0.5c-0.2-0.2-0.4-0.5-0.5-0.8c-0.3-0.7-0.3-1.4,0-2.1c0.1-0.3,0.3-0.6,0.5-0.8
			c0.2-0.2,0.5-0.4,0.8-0.5C167.4,64.9,167.7,64.8,168.1,64.8"/>
	</g>
</g>
</svg>
